<mxfile host="Electron" agent="Mozilla/5.0 (X11; Linux x86_64) AppleWebKit/537.36 (KHTML, like Gecko) draw.io/26.2.2 Chrome/134.0.6998.178 Electron/35.1.2 Safari/537.36" version="26.2.2">
  <diagram id="C5RBs43oDa-KdzZeNtuy" name="Page-1">
    <mxGraphModel dx="2072" dy="2466" grid="1" gridSize="10" guides="1" tooltips="1" connect="1" arrows="1" fold="1" page="1" pageScale="1" pageWidth="827" pageHeight="1169" math="0" shadow="0">
      <root>
        <mxCell id="WIyWlLk6GJQsqaUBKTNV-0" />
        <mxCell id="WIyWlLk6GJQsqaUBKTNV-1" parent="WIyWlLk6GJQsqaUBKTNV-0" />
        <mxCell id="Bauxb-tKY-qYCoudtzmH-7" value="" style="edgeStyle=orthogonalEdgeStyle;rounded=0;orthogonalLoop=1;jettySize=auto;html=1;" edge="1" parent="WIyWlLk6GJQsqaUBKTNV-1" source="WIyWlLk6GJQsqaUBKTNV-3" target="Bauxb-tKY-qYCoudtzmH-6">
          <mxGeometry relative="1" as="geometry" />
        </mxCell>
        <mxCell id="WIyWlLk6GJQsqaUBKTNV-3" value="서버 소켓 생성" style="rounded=1;whiteSpace=wrap;html=1;fontSize=12;glass=0;strokeWidth=1;shadow=0;" parent="WIyWlLk6GJQsqaUBKTNV-1" vertex="1">
          <mxGeometry x="135" y="210" width="170" height="60" as="geometry" />
        </mxCell>
        <mxCell id="Bauxb-tKY-qYCoudtzmH-5" value="" style="edgeStyle=orthogonalEdgeStyle;rounded=0;orthogonalLoop=1;jettySize=auto;html=1;" edge="1" parent="WIyWlLk6GJQsqaUBKTNV-1" source="WIyWlLk6GJQsqaUBKTNV-6" target="WIyWlLk6GJQsqaUBKTNV-3">
          <mxGeometry relative="1" as="geometry" />
        </mxCell>
        <mxCell id="Bauxb-tKY-qYCoudtzmH-17" value="" style="edgeStyle=orthogonalEdgeStyle;rounded=0;orthogonalLoop=1;jettySize=auto;html=1;" edge="1" parent="WIyWlLk6GJQsqaUBKTNV-1" source="WIyWlLk6GJQsqaUBKTNV-6" target="Bauxb-tKY-qYCoudtzmH-16">
          <mxGeometry relative="1" as="geometry" />
        </mxCell>
        <mxCell id="WIyWlLk6GJQsqaUBKTNV-6" value="서버인가?" style="rhombus;whiteSpace=wrap;html=1;shadow=0;fontFamily=Helvetica;fontSize=12;align=center;strokeWidth=1;spacing=6;spacingTop=-4;" parent="WIyWlLk6GJQsqaUBKTNV-1" vertex="1">
          <mxGeometry x="130" y="80" width="180" height="80" as="geometry" />
        </mxCell>
        <mxCell id="Bauxb-tKY-qYCoudtzmH-4" value="" style="edgeStyle=orthogonalEdgeStyle;rounded=0;orthogonalLoop=1;jettySize=auto;html=1;" edge="1" parent="WIyWlLk6GJQsqaUBKTNV-1" source="Bauxb-tKY-qYCoudtzmH-1" target="WIyWlLk6GJQsqaUBKTNV-6">
          <mxGeometry relative="1" as="geometry" />
        </mxCell>
        <mxCell id="Bauxb-tKY-qYCoudtzmH-1" value="시작" style="ellipse;whiteSpace=wrap;html=1;" vertex="1" parent="WIyWlLk6GJQsqaUBKTNV-1">
          <mxGeometry x="160" y="-40" width="120" height="80" as="geometry" />
        </mxCell>
        <mxCell id="Bauxb-tKY-qYCoudtzmH-9" value="" style="edgeStyle=orthogonalEdgeStyle;rounded=0;orthogonalLoop=1;jettySize=auto;html=1;" edge="1" parent="WIyWlLk6GJQsqaUBKTNV-1" source="Bauxb-tKY-qYCoudtzmH-6" target="Bauxb-tKY-qYCoudtzmH-8">
          <mxGeometry relative="1" as="geometry" />
        </mxCell>
        <mxCell id="Bauxb-tKY-qYCoudtzmH-6" value="memset&lt;div&gt;TCP설정, IP설정 port번호 설정&lt;/div&gt;" style="rounded=1;whiteSpace=wrap;html=1;fontSize=12;glass=0;strokeWidth=1;shadow=0;" vertex="1" parent="WIyWlLk6GJQsqaUBKTNV-1">
          <mxGeometry x="135" y="320" width="170" height="60" as="geometry" />
        </mxCell>
        <mxCell id="Bauxb-tKY-qYCoudtzmH-11" value="" style="edgeStyle=orthogonalEdgeStyle;rounded=0;orthogonalLoop=1;jettySize=auto;html=1;" edge="1" parent="WIyWlLk6GJQsqaUBKTNV-1" source="Bauxb-tKY-qYCoudtzmH-8" target="Bauxb-tKY-qYCoudtzmH-10">
          <mxGeometry relative="1" as="geometry" />
        </mxCell>
        <mxCell id="Bauxb-tKY-qYCoudtzmH-8" value="bind 함수&lt;div&gt;(IP, port,&amp;nbsp;&lt;/div&gt;&lt;div&gt;프로토콜을 소켓에 채움)&lt;/div&gt;" style="rounded=1;whiteSpace=wrap;html=1;fontSize=12;glass=0;strokeWidth=1;shadow=0;" vertex="1" parent="WIyWlLk6GJQsqaUBKTNV-1">
          <mxGeometry x="135" y="420" width="170" height="60" as="geometry" />
        </mxCell>
        <mxCell id="Bauxb-tKY-qYCoudtzmH-13" value="" style="edgeStyle=orthogonalEdgeStyle;rounded=0;orthogonalLoop=1;jettySize=auto;html=1;" edge="1" parent="WIyWlLk6GJQsqaUBKTNV-1" source="Bauxb-tKY-qYCoudtzmH-10" target="Bauxb-tKY-qYCoudtzmH-12">
          <mxGeometry relative="1" as="geometry" />
        </mxCell>
        <mxCell id="Bauxb-tKY-qYCoudtzmH-10" value="listen 함수&lt;div&gt;메시지 읽는 쓰레드 생성&lt;/div&gt;&lt;div&gt;메시지 보내는 쓰레드 생성&lt;br&gt;&lt;div&gt;클라이언트 대기&lt;/div&gt;&lt;/div&gt;" style="rounded=1;whiteSpace=wrap;html=1;fontSize=12;glass=0;strokeWidth=1;shadow=0;" vertex="1" parent="WIyWlLk6GJQsqaUBKTNV-1">
          <mxGeometry x="135" y="524.5" width="170" height="65.5" as="geometry" />
        </mxCell>
        <mxCell id="Bauxb-tKY-qYCoudtzmH-15" value="" style="edgeStyle=orthogonalEdgeStyle;rounded=0;orthogonalLoop=1;jettySize=auto;html=1;" edge="1" parent="WIyWlLk6GJQsqaUBKTNV-1" source="Bauxb-tKY-qYCoudtzmH-12" target="Bauxb-tKY-qYCoudtzmH-14">
          <mxGeometry relative="1" as="geometry" />
        </mxCell>
        <mxCell id="Bauxb-tKY-qYCoudtzmH-12" value="클라이언트 접속" style="rounded=1;whiteSpace=wrap;html=1;fontSize=12;glass=0;strokeWidth=1;shadow=0;" vertex="1" parent="WIyWlLk6GJQsqaUBKTNV-1">
          <mxGeometry x="135" y="630" width="170" height="60" as="geometry" />
        </mxCell>
        <mxCell id="Bauxb-tKY-qYCoudtzmH-23" value="" style="edgeStyle=orthogonalEdgeStyle;rounded=0;orthogonalLoop=1;jettySize=auto;html=1;" edge="1" parent="WIyWlLk6GJQsqaUBKTNV-1" source="Bauxb-tKY-qYCoudtzmH-14" target="Bauxb-tKY-qYCoudtzmH-22">
          <mxGeometry relative="1" as="geometry" />
        </mxCell>
        <mxCell id="Bauxb-tKY-qYCoudtzmH-14" value="accept 함수&lt;div&gt;클라이언트 쓰레드 생성(READ)&lt;/div&gt;&lt;div&gt;클라이언트 쓰레드 생성(WRITE)&lt;/div&gt;" style="rounded=1;whiteSpace=wrap;html=1;fontSize=12;glass=0;strokeWidth=1;shadow=0;" vertex="1" parent="WIyWlLk6GJQsqaUBKTNV-1">
          <mxGeometry x="135" y="730" width="170" height="60" as="geometry" />
        </mxCell>
        <mxCell id="Bauxb-tKY-qYCoudtzmH-20" value="" style="edgeStyle=orthogonalEdgeStyle;rounded=0;orthogonalLoop=1;jettySize=auto;html=1;" edge="1" parent="WIyWlLk6GJQsqaUBKTNV-1" source="Bauxb-tKY-qYCoudtzmH-16" target="Bauxb-tKY-qYCoudtzmH-19">
          <mxGeometry relative="1" as="geometry" />
        </mxCell>
        <mxCell id="Bauxb-tKY-qYCoudtzmH-16" value="클라이언트 소켓 생성" style="rounded=1;whiteSpace=wrap;html=1;fontSize=12;glass=0;strokeWidth=1;shadow=0;" vertex="1" parent="WIyWlLk6GJQsqaUBKTNV-1">
          <mxGeometry x="390" y="210" width="170" height="60" as="geometry" />
        </mxCell>
        <mxCell id="Bauxb-tKY-qYCoudtzmH-21" style="edgeStyle=orthogonalEdgeStyle;rounded=0;orthogonalLoop=1;jettySize=auto;html=1;entryX=1;entryY=0.5;entryDx=0;entryDy=0;" edge="1" parent="WIyWlLk6GJQsqaUBKTNV-1" source="Bauxb-tKY-qYCoudtzmH-19" target="Bauxb-tKY-qYCoudtzmH-12">
          <mxGeometry relative="1" as="geometry">
            <Array as="points">
              <mxPoint x="480" y="660" />
            </Array>
          </mxGeometry>
        </mxCell>
        <mxCell id="Bauxb-tKY-qYCoudtzmH-19" value="memset&lt;div&gt;TCP설정, IP설정 port번호 설정&lt;/div&gt;" style="rounded=1;whiteSpace=wrap;html=1;fontSize=12;glass=0;strokeWidth=1;shadow=0;" vertex="1" parent="WIyWlLk6GJQsqaUBKTNV-1">
          <mxGeometry x="390" y="320" width="170" height="60" as="geometry" />
        </mxCell>
        <mxCell id="Bauxb-tKY-qYCoudtzmH-28" value="" style="edgeStyle=orthogonalEdgeStyle;rounded=0;orthogonalLoop=1;jettySize=auto;html=1;" edge="1" parent="WIyWlLk6GJQsqaUBKTNV-1" source="Bauxb-tKY-qYCoudtzmH-22" target="Bauxb-tKY-qYCoudtzmH-27">
          <mxGeometry relative="1" as="geometry" />
        </mxCell>
        <mxCell id="Bauxb-tKY-qYCoudtzmH-22" value="종료인가?" style="rhombus;whiteSpace=wrap;html=1;shadow=0;fontFamily=Helvetica;fontSize=12;align=center;strokeWidth=1;spacing=6;spacingTop=-4;" vertex="1" parent="WIyWlLk6GJQsqaUBKTNV-1">
          <mxGeometry x="130" y="830" width="180" height="80" as="geometry" />
        </mxCell>
        <mxCell id="Bauxb-tKY-qYCoudtzmH-27" value="종료" style="ellipse;whiteSpace=wrap;html=1;" vertex="1" parent="WIyWlLk6GJQsqaUBKTNV-1">
          <mxGeometry x="160" y="940" width="120" height="80" as="geometry" />
        </mxCell>
      </root>
    </mxGraphModel>
  </diagram>
</mxfile>
